<?xml version="1.0" encoding="UTF-8"?>
<!DOCTYPE svg PUBLIC "-//W3C//DTD SVG 1.1//EN" "http://www.w3.org/Graphics/SVG/1.1/DTD/svg11.dtd">
<svg xmlns="http://www.w3.org/2000/svg" version="1.1" width="1300px" height="1300px" style="shape-rendering:geometricPrecision; text-rendering:geometricPrecision; image-rendering:optimizeQuality; fill-rule:evenodd; clip-rule:evenodd" xmlns:xlink="http://www.w3.org/1999/xlink">
<g><path style="opacity:0.999" fill="#010101" d="M 559.5,364.5 C 559.5,396.833 559.5,429.167 559.5,461.5C 555.5,461.5 551.5,461.5 547.5,461.5C 538.362,438.753 529.029,416.086 519.5,393.5C 491.005,392.502 462.338,392.169 433.5,392.5C 433.5,515.5 433.5,638.5 433.5,761.5C 434.5,761.5 435.5,761.5 436.5,761.5C 446.861,761.78 457.195,762.447 467.5,763.5C 468.568,764.434 469.901,764.768 471.5,764.5C 471.5,768.167 471.5,771.833 471.5,775.5C 425.5,775.5 379.5,775.5 333.5,775.5C 333.5,771.833 333.5,768.167 333.5,764.5C 344.956,762.746 356.623,761.746 368.5,761.5C 369.5,761.5 370.5,761.5 371.5,761.5C 371.5,638.5 371.5,515.5 371.5,392.5C 342.329,392.169 313.329,392.502 284.5,393.5C 275.513,416.145 266.513,438.812 257.5,461.5C 253.217,462.492 248.884,462.826 244.5,462.5C 244.5,429.833 244.5,397.167 244.5,364.5C 349.5,364.5 454.5,364.5 559.5,364.5 Z"/></g>
<g><path style="opacity:0.478" fill="#616161" d="M 559.5,364.5 C 560.498,396.996 560.832,429.662 560.5,462.5C 555.968,462.818 551.634,462.485 547.5,461.5C 551.5,461.5 555.5,461.5 559.5,461.5C 559.5,429.167 559.5,396.833 559.5,364.5 Z"/></g>
<g><path style="opacity:0.991" fill="#080808" d="M 781.5,378.5 C 778.5,378.5 775.5,378.5 772.5,378.5C 772.831,400.007 772.497,421.34 771.5,442.5C 762.567,408.456 742.901,382.623 712.5,365C 745.165,364.5 777.832,364.333 810.5,364.5C 810.797,368.767 810.464,372.934 809.5,377C 800.181,377.832 790.848,378.332 781.5,378.5 Z"/></g>
<g><path style="opacity:0.997" fill="#060606" d="M 1058.5,376.5 C 1050.49,376.334 1042.49,376.5 1034.5,377C 1035.04,377.717 1035.71,378.217 1036.5,378.5C 1037.48,378.811 1038.14,379.478 1038.5,380.5C 994.962,435.534 951.629,490.701 908.5,546C 950.309,617.123 991.976,688.29 1033.5,759.5C 1035.99,761.388 1038.99,762.055 1042.5,761.5C 1053.38,761.739 1064.05,762.739 1074.5,764.5C 1074.5,768.167 1074.5,771.833 1074.5,775.5C 1026.83,775.5 979.167,775.5 931.5,775.5C 931.5,771.833 931.5,768.167 931.5,764.5C 942.621,762.739 953.954,761.739 965.5,761.5C 965.509,759.692 965.009,758.025 964,756.5C 927.833,698.833 891.667,641.167 855.5,583.5C 828.175,582.5 800.841,582.167 773.5,582.5C 773.831,635.405 773.497,688.238 772.5,741C 771.668,741.688 771.002,741.521 770.5,740.5C 749.564,702.294 728.898,663.961 708.5,625.5C 734.157,610.674 752.99,589.674 765,562.5C 767.673,555.981 769.84,549.314 771.5,542.5C 772.167,547.5 772.833,552.5 773.5,557.5C 801.841,557.833 830.175,557.5 858.5,556.5C 908.355,497.146 958.022,437.646 1007.5,378C 995.142,377.752 982.808,377.252 970.5,376.5C 970.5,372.5 970.5,368.5 970.5,364.5C 1001.17,364.5 1031.83,364.5 1062.5,364.5C 1062.5,368.5 1062.5,372.5 1062.5,376.5C 1061.17,376.5 1059.83,376.5 1058.5,376.5 Z"/></g>
<g><path style="opacity:0.992" fill="#febd5a" d="M 582.5,365.5 C 602.169,365.333 621.836,365.5 641.5,366C 669.731,367.851 695.065,377.184 717.5,394C 740.53,415.374 753.03,441.874 755,473.5C 759.023,505.676 754.023,536.343 740,565.5C 731.593,579.907 720.427,591.741 706.5,601C 697.356,606.239 688.022,610.906 678.5,615C 704.532,663.564 730.699,712.064 757,760.5C 768.378,762.56 779.878,763.894 791.5,764.5C 792.919,765.451 794.585,765.784 796.5,765.5C 796.5,769.167 796.5,772.833 796.5,776.5C 748.167,776.5 699.833,776.5 651.5,776.5C 650.179,772.767 650.179,768.934 651.5,765C 663.197,763.831 674.864,762.498 686.5,761C 663.344,718.518 640.344,676.018 617.5,633.5C 583.004,632.502 548.337,632.168 513.5,632.5C 513.5,675.833 513.5,719.167 513.5,762.5C 515.167,762.5 516.833,762.5 518.5,762.5C 529.514,762.963 540.514,763.629 551.5,764.5C 551.5,768.833 551.5,773.167 551.5,777.5C 532.326,777.83 513.326,777.497 494.5,776.5C 495.144,765.116 494.477,754.116 492.5,743.5C 480.491,742.986 468.491,742.32 456.5,741.5C 456.5,627.167 456.5,512.833 456.5,398.5C 470.504,398.333 484.504,398.5 498.5,399C 504.202,411.235 509.202,423.735 513.5,436.5C 513.5,494.5 513.5,552.5 513.5,610.5C 539.339,610.831 565.005,610.498 590.5,609.5C 648.073,607.757 680.906,578.423 689,521.5C 692.163,494.84 690.496,468.506 684,442.5C 673.088,407.594 649.588,386.761 613.5,380C 606.514,378.983 599.514,378.15 592.5,377.5C 589.375,376.521 586.042,376.187 582.5,376.5C 582.5,372.833 582.5,369.167 582.5,365.5 Z"/></g>
<g><path style="opacity:0.416" fill="#facf91" d="M 582.5,365.5 C 582.5,369.167 582.5,372.833 582.5,376.5C 586.042,376.187 589.375,376.521 592.5,377.5C 588.833,377.5 585.167,377.5 581.5,377.5C 581.183,373.298 581.517,369.298 582.5,365.5 Z"/></g>
<g><path style="opacity:0.165" fill="#9b9b9b" d="M 1058.5,376.5 C 1051.17,377.167 1043.83,377.833 1036.5,378.5C 1035.71,378.217 1035.04,377.717 1034.5,377C 1042.49,376.5 1050.49,376.334 1058.5,376.5 Z"/></g>
<g><path style="opacity:0.047" fill="#c9c9c9" d="M 781.5,378.5 C 779.052,379.473 776.385,379.806 773.5,379.5C 773.667,402.169 773.5,424.836 773,447.5C 771.991,445.975 771.491,444.308 771.5,442.5C 772.497,421.34 772.831,400.007 772.5,378.5C 775.5,378.5 778.5,378.5 781.5,378.5 Z"/></g>
<g><path style="opacity:0.545" fill="#616161" d="M 284.5,393.5 C 313.329,392.502 342.329,392.169 371.5,392.5C 371.5,515.5 371.5,638.5 371.5,761.5C 370.5,761.5 369.5,761.5 368.5,761.5C 370.495,639.044 371.162,516.377 370.5,393.5C 341.833,393.5 313.167,393.5 284.5,393.5 Z"/></g>
<g><path style="opacity:0.78" fill="#2c2c2c" d="M 519.5,393.5 C 491.167,393.5 462.833,393.5 434.5,393.5C 433.838,516.377 434.505,639.044 436.5,761.5C 435.5,761.5 434.5,761.5 433.5,761.5C 433.5,638.5 433.5,515.5 433.5,392.5C 462.338,392.169 491.005,392.502 519.5,393.5 Z"/></g>
<g><path style="opacity:0.047" fill="#d0d0d0" d="M 773.5,557.5 C 772.833,552.5 772.167,547.5 771.5,542.5C 771.987,541.527 772.487,540.527 773,539.5C 773.499,545.491 773.666,551.491 773.5,557.5 Z"/></g>
<g><path style="opacity:0.251" fill="#f6dcb5" d="M 513.5,436.5 C 514.499,493.998 514.832,551.664 514.5,609.5C 539.833,609.5 565.167,609.5 590.5,609.5C 565.005,610.498 539.339,610.831 513.5,610.5C 513.5,552.5 513.5,494.5 513.5,436.5 Z"/></g>
<g><path style="opacity:0.055" fill="#f3e5cf" d="M 617.5,633.5 C 583.167,633.5 548.833,633.5 514.5,633.5C 514.5,676.167 514.5,718.833 514.5,761.5C 516.099,761.232 517.432,761.566 518.5,762.5C 516.833,762.5 515.167,762.5 513.5,762.5C 513.5,719.167 513.5,675.833 513.5,632.5C 548.337,632.168 583.004,632.502 617.5,633.5 Z"/></g>
<g><path style="opacity:0.227" fill="#f7d8a9" d="M 492.5,743.5 C 494.477,754.116 495.144,765.116 494.5,776.5C 493.813,765.599 493.146,754.599 492.5,743.5 Z"/></g>
<g><path style="opacity:0.094" fill="#9a9a9a" d="M 1033.5,759.5 C 1036.61,760.088 1039.61,760.755 1042.5,761.5C 1038.99,762.055 1035.99,761.388 1033.5,759.5 Z"/></g>
<g><path style="opacity:0.4" fill="#7d7d7d" d="M 467.5,763.5 C 469.167,763.5 470.833,763.5 472.5,763.5C 472.5,767.833 472.5,772.167 472.5,776.5C 425.833,776.5 379.167,776.5 332.5,776.5C 332.183,772.298 332.517,768.298 333.5,764.5C 333.5,768.167 333.5,771.833 333.5,775.5C 379.5,775.5 425.5,775.5 471.5,775.5C 471.5,771.833 471.5,768.167 471.5,764.5C 469.901,764.768 468.568,764.434 467.5,763.5 Z"/></g>
<g><path style="opacity:0.4" fill="#808080" d="M 931.5,764.5 C 931.5,768.167 931.5,771.833 931.5,775.5C 979.167,775.5 1026.83,775.5 1074.5,775.5C 1074.5,771.833 1074.5,768.167 1074.5,764.5C 1075.48,768.298 1075.82,772.298 1075.5,776.5C 1027.17,776.5 978.833,776.5 930.5,776.5C 930.183,772.298 930.517,768.298 931.5,764.5 Z"/></g>
<g><path style="opacity:0.086" fill="#f5e2c6" d="M 791.5,764.5 C 793.5,764.5 795.5,764.5 797.5,764.5C 797.5,768.833 797.5,773.167 797.5,777.5C 748.664,777.832 699.997,777.499 651.5,776.5C 699.833,776.5 748.167,776.5 796.5,776.5C 796.5,772.833 796.5,769.167 796.5,765.5C 794.585,765.784 792.919,765.451 791.5,764.5 Z"/></g>
<g><path style="opacity:0.846" fill="#000000" d="M 570.5,839.5 C 578.157,838.494 584.49,840.827 589.5,846.5C 586.384,852.184 582.717,852.684 578.5,848C 567.331,847.503 563.165,852.67 566,863.5C 571.633,869.779 577.633,870.112 584,864.5C 585.378,866.213 587.045,867.547 589,868.5C 587.903,872.58 585.07,875.08 580.5,876C 563.3,878.128 555.133,870.628 556,853.5C 558.124,845.874 562.957,841.207 570.5,839.5 Z"/></g>
<g><path style="opacity:0.848" fill="#000000" d="M 903.5,839.5 C 908.869,838.98 913.869,839.98 918.5,842.5C 917.627,844.413 916.627,846.247 915.5,848C 911.879,847.595 908.213,847.595 904.5,848C 901.967,849.033 900.301,850.867 899.5,853.5C 903.663,853.493 907.996,853.66 912.5,854C 918.327,857.133 920.493,861.966 919,868.5C 913.801,876.467 906.634,878.634 897.5,875C 890.821,869.833 888.321,863 890,854.5C 891.61,846.731 896.11,841.731 903.5,839.5 Z M 902.5,860.5 C 908.496,859.333 910.996,861.666 910,867.5C 905.456,870.726 901.956,869.893 899.5,865C 899.957,863.06 900.957,861.56 902.5,860.5 Z"/></g>
<g><path style="opacity:0.865" fill="#000000" d="M 949.5,839.5 C 962.394,838.893 969.061,845.06 969.5,858C 968.027,874.231 959.693,879.564 944.5,874C 941.769,871.374 939.936,868.207 939,864.5C 937.317,856.586 938.817,849.419 943.5,843C 945.432,841.541 947.432,840.375 949.5,839.5 Z M 951.5,847.5 C 954.961,847.146 957.461,848.479 959,851.5C 959.667,855.833 959.667,860.167 959,864.5C 957.253,868.421 954.419,869.421 950.5,867.5C 949.416,866.335 948.583,865.002 948,863.5C 946.52,857.451 947.686,852.118 951.5,847.5 Z"/></g>
<g><path style="opacity:0.771" fill="#000000" d="M 995.5,839.5 C 1004.01,839.844 1007.51,844.177 1006,852.5C 1003.1,857.155 998.937,858.655 993.5,857C 988.931,854.459 987.431,850.625 989,845.5C 990.436,842.558 992.603,840.558 995.5,839.5 Z M 996.5,844.5 C 1001.26,845.092 1002.6,847.592 1000.5,852C 993.17,852.486 991.837,849.986 996.5,844.5 Z"/></g>
<g><path style="opacity:0.884" fill="#000000" d="M 313.5,840.5 C 320.841,840.334 328.174,840.5 335.5,841C 343.479,844.128 346.313,849.961 344,858.5C 341.889,862.944 338.389,865.444 333.5,866C 329.848,866.499 326.182,866.665 322.5,866.5C 322.5,869.5 322.5,872.5 322.5,875.5C 319.5,875.5 316.5,875.5 313.5,875.5C 313.5,863.833 313.5,852.167 313.5,840.5 Z M 322.5,847.5 C 326.273,847.263 329.94,847.763 333.5,849C 336.299,852.339 335.966,855.339 332.5,858C 329.183,858.498 325.85,858.665 322.5,858.5C 322.5,854.833 322.5,851.167 322.5,847.5 Z"/></g>
<g><path style="opacity:0.872" fill="#000000" d="M 366.5,840.5 C 369.5,840.5 372.5,840.5 375.5,840.5C 375.334,848.174 375.5,855.841 376,863.5C 379.532,869.29 383.865,869.957 389,865.5C 390.37,857.236 390.87,848.903 390.5,840.5C 393.5,840.5 396.5,840.5 399.5,840.5C 399.846,849.559 399.346,858.559 398,867.5C 395.032,873.787 390.032,876.787 383,876.5C 376.267,876.968 371.267,874.302 368,868.5C 366.614,859.234 366.114,849.9 366.5,840.5 Z"/></g>
<g><path style="opacity:0.876" fill="#000000" d="M 422.5,840.5 C 430.507,840.334 438.507,840.5 446.5,841C 453.267,843.307 455.434,847.807 453,854.5C 452.167,855.333 451.333,856.167 450.5,857C 455.22,860.298 456.72,864.798 455,870.5C 453.363,872.81 451.196,874.31 448.5,875C 439.84,875.5 431.173,875.666 422.5,875.5C 422.5,863.833 422.5,852.167 422.5,840.5 Z M 431.5,847.5 C 435.182,847.335 438.848,847.501 442.5,848C 445.033,849.916 445.033,851.916 442.5,854C 438.848,854.499 435.182,854.665 431.5,854.5C 431.5,852.167 431.5,849.833 431.5,847.5 Z M 431.5,861.5 C 435.846,861.334 440.179,861.501 444.5,862C 447.033,864.084 447.033,866.084 444.5,868C 440.179,868.499 435.846,868.666 431.5,868.5C 431.5,866.167 431.5,863.833 431.5,861.5 Z"/></g>
<g><path style="opacity:0.896" fill="#000000" d="M 477.5,840.5 C 480.5,840.5 483.5,840.5 486.5,840.5C 486.5,849.833 486.5,859.167 486.5,868.5C 492.5,868.5 498.5,868.5 504.5,868.5C 504.5,870.833 504.5,873.167 504.5,875.5C 495.5,875.5 486.5,875.5 477.5,875.5C 477.5,863.833 477.5,852.167 477.5,840.5 Z"/></g>
<g><path style="opacity:0.891" fill="#000000" d="M 524.5,840.5 C 527.5,840.5 530.5,840.5 533.5,840.5C 533.5,852.167 533.5,863.833 533.5,875.5C 530.5,875.5 527.5,875.5 524.5,875.5C 524.5,863.833 524.5,852.167 524.5,840.5 Z"/></g>
<g><path style="opacity:0.891" fill="#000000" d="M 610.5,840.5 C 613.5,840.5 616.5,840.5 619.5,840.5C 619.5,852.167 619.5,863.833 619.5,875.5C 616.5,875.5 613.5,875.5 610.5,875.5C 610.5,863.833 610.5,852.167 610.5,840.5 Z"/></g>
<g><path style="opacity:0.904" fill="#000000" d="M 644.5,840.5 C 652.174,840.334 659.841,840.5 667.5,841C 679.408,846.445 682.908,855.278 678,867.5C 675.795,870.04 673.295,872.207 670.5,874C 661.916,875.41 653.25,875.91 644.5,875.5C 644.5,863.833 644.5,852.167 644.5,840.5 Z M 653.5,847.5 C 658.412,847.063 663.078,847.896 667.5,850C 671.5,855.333 671.5,860.667 667.5,866C 663.116,868.208 658.449,869.041 653.5,868.5C 653.5,861.5 653.5,854.5 653.5,847.5 Z"/></g>
<g><path style="opacity:0.88" fill="#000000" d="M 712.5,840.5 C 715.833,840.5 719.167,840.5 722.5,840.5C 727.078,852.158 732.078,863.658 737.5,875C 734.118,875.824 730.784,875.657 727.5,874.5C 726.253,872.677 725.586,870.677 725.5,868.5C 720.156,868.334 714.823,868.501 709.5,869C 707.838,875.395 703.838,877.228 697.5,874.5C 702.512,863.145 707.512,851.812 712.5,840.5 Z M 716.5,850.5 C 718.648,853.462 720.314,856.795 721.5,860.5C 718.554,861.655 715.554,861.821 712.5,861C 714.26,857.649 715.594,854.149 716.5,850.5 Z"/></g>
<g><path style="opacity:0.89" fill="#000000" d="M 756.5,840.5 C 765.25,840.09 773.916,840.59 782.5,842C 789.781,845.055 793.114,850.555 792.5,858.5C 792.73,865.54 789.73,870.706 783.5,874C 774.582,875.414 765.582,875.914 756.5,875.5C 756.5,863.833 756.5,852.167 756.5,840.5 Z M 765.5,847.5 C 771.933,846.478 777.433,848.145 782,852.5C 785.579,860.228 783.412,865.395 775.5,868C 772.183,868.498 768.85,868.665 765.5,868.5C 765.5,861.5 765.5,854.5 765.5,847.5 Z"/></g>
<g><path style="opacity:0.858" fill="#000000" d="M 843.5,840.5 C 851.833,840.5 860.167,840.5 868.5,840.5C 868.965,846.402 866.632,850.902 861.5,854C 870.01,857.532 872.176,863.366 868,871.5C 864.46,875.126 860.126,876.793 855,876.5C 849.818,876.753 845.318,875.253 841.5,872C 842.278,869.61 843.445,867.443 845,865.5C 850.843,869.528 856.343,869.361 861.5,865C 860.833,864 860.167,863 859.5,862C 856.518,861.502 853.518,861.335 850.5,861.5C 850.337,859.143 850.503,856.81 851,854.5C 853.018,852.65 854.851,850.65 856.5,848.5C 852.217,847.508 847.884,847.174 843.5,847.5C 843.5,845.167 843.5,842.833 843.5,840.5 Z"/></g>
</svg>
